# xmcd
#
# Track frame offsets:
#	150
#	18034
#	35667
#	50023
#	72431
#	84784
#	101349
#	117191
#	136924
#	151939
#	179839
#
# Disc length: 3030 seconds
#
# Revision: 3
# Processed by: cddbd v1.5.2PL0 Copyright (c) Steve Scherf et al.
# Submitted via: EasyCDDAExtractor 12.0.4.1
#
DISCID=890bd40b
DTITLE=Armchair - Design
DYEAR=2003
DGENRE=pop
TTITLE0=รึเปล่า Curiosity
TTITLE1=อาจเพราะเธอ Bliss
TTITLE2=Minute of Love
TTITLE3=วันที่ฉันป่วย Long For
TTITLE4=สำเริงสำราญ I Die Leisure
TTITLE5=อยู่ที่เธอทุกอย่าง Sweet Taste Colour
TTITLE6=ผู้ชายที่โชคดี  Must
TTITLE7=เข้าใจและยอมรับ Monochrome
TTITLE8=ขอให้หยุดฟัง Near - By - Distance
TTITLE9=ทำไม Naive Song
TTITLE10=Data Track
EXTD=
EXTT0=
EXTT1=
EXTT2=
EXTT3=
EXTT4=
EXTT5=
EXTT6=
EXTT7=
EXTT8=
EXTT9=
EXTT10=
PLAYORDER=
